<?xml version="1.0" encoding="UTF-8"?>
<svg id="Layer_2" data-name="Layer 2" xmlns="http://www.w3.org/2000/svg" viewBox="0 0 219.7 51.61">
  <defs>
    <style>
      .cls-1, .cls-2 {
        fill: #008356;
      }

      .cls-1, .cls-3, .cls-4 {
        stroke-width: 0px;
      }

      .cls-5 {
        letter-spacing: 0em;
      }

      .cls-5, .cls-6, .cls-7, .cls-8 {
        font-family: Montserrat-Regular, Montserrat;
      }

      .cls-6 {
        letter-spacing: 0em;
      }

      .cls-9 {
        font-family: MontserratRoman-SemiBold, Montserrat;
        font-variation-settings: 'wght' 600;
        font-weight: 600;
      }

      .cls-2 {
        font-size: 13.12px;
      }

      .cls-7 {
        letter-spacing: 0em;
      }

      .cls-3, .cls-10 {
        fill: #02424c;
      }

      .cls-10 {
        font-family: MontserratRoman-Bold, Montserrat;
        font-size: 39.26px;
        font-variation-settings: 'wght' 700;
        font-weight: 700;
      }

      .cls-4 {
        fill: #d47536;
      }
    </style>
  </defs>
  <g id="Layer_1-2" data-name="Layer 1">
    <g>
      <g id="Layer_1-2" data-name="Layer 1-2">
        <path class="cls-1" d="M2.32,37.41c2.15-.5,4.16-1.46,6.29-2.42,2.11-.98,4.28-2.02,6.48-2.88,2.19-.85,4.42-1.53,6.5-1.67,2.08-.16,3.96.33,5.3,1.27,1.29.88,2.12,2.01,2.69,2.83-.01.32-.04.63-.07.94-.66-.75-1.71-1.59-3.26-1.91-1.97-.41-4.22.26-6.24,1.25-2.06,1-4.04,2.33-6,3.61-1.96,1.28-3.91,2.56-5.8,3.39-1.89.86-3.64,1.08-4.8.58-.3-.12-.57-.27-.83-.44-.93-1.3-1.63-2.76-2.07-4.33.64,0,1.25-.1,1.82-.21"/>
        <path class="cls-4" d="M15.47,40.51c1.88-1.43,3.69-2.85,5.48-3.92,1.78-1.08,3.57-1.76,5.09-1.64,1.47.1,2.59.9,3.31,1.53-1.24,6.63-7.29,11.66-14.55,11.66-3.1,0-5.98-.92-8.36-2.48,1.08-.24,2.09-.66,3.05-1.15,2.16-1.11,4.1-2.58,5.98-4"/>
        <path class="cls-3" d="M.19,31.7C1.71,22.9,14.48,8.29,14.72,2.62c.32,5.6,12.81,19.59,14.6,28.68h0c.09.48.16.96.2,1.44-.42-.69-.98-1.44-1.78-2.14-1.45-1.32-3.78-2.18-6.21-2.18-2.44-.04-4.93.54-7.3,1.28-2.38.75-4.68,1.69-6.81,2.54-2.12.84-4.15,1.63-5.75,1.91-.79.15-1.44.08-1.6-.03-.02-.01-.04-.03-.06-.05v-.12c0-.77.06-1.52.19-2.25"/>
      </g>
      <text class="cls-10" transform="translate(37.54 33.37)"><tspan x="0" y="0">ISOTECH</tspan></text>
      <text class="cls-2" transform="translate(40.6 48.17)"><tspan class="cls-8" x="0" y="0">a </tspan><tspan class="cls-9" x="11.17" y="0">Stratum Reservoir</tspan><tspan class="cls-7" x="133.89" y="0" xml:space="preserve"> b</tspan><tspan class="cls-5" x="146.22" y="0">r</tspan><tspan class="cls-8" x="151.36" y="0">a</tspan><tspan class="cls-6" x="159.1" y="0">n</tspan><tspan class="cls-8" x="168" y="0">d</tspan></text>
    </g>
  </g>
</svg>